<svg xmlns="http://www.w3.org/2000/svg" viewBox="0 0 400 680" width="400" height="680">
  <rect width="400" height="680" fill="#0a0a0a"/>
  <path fill="#e2d9bc" d="
    M 200 18
    L 222 80
    L 258 118
    L 246 130
    L 278 162
    L 278 200
    C 278 230 262 248 238 258
    L 270 268
    C 310 282 334 310 334 348
    C 334 388 308 416 274 428
    L 258 434
    L 278 460
    L 248 490
    L 240 522
    L 200 662
    L 160 522
    L 152 490
    L 122 460
    L 142 434
    L 126 428
    C 92 416 66 388 66 348
    C 66 310 90 282 130 268
    L 162 258
    C 138 248 122 230 122 200
    L 122 162
    L 154 130
    L 142 118
    L 178 80
    Z
    M 200 52
    L 186 88
    L 158 112
    L 168 122
    L 140 148
    L 140 196
    C 140 222 154 238 176 248
    L 200 256
    L 224 248
    C 246 238 260 222 260 196
    L 260 148
    L 232 122
    L 242 112
    L 214 88
    Z
    M 200 276
    L 154 288
    C 116 300 96 322 96 350
    C 96 378 116 400 154 412
    L 176 420
    L 158 442
    L 174 460
    L 180 490
    L 200 560
    L 220 490
    L 226 460
    L 242 442
    L 224 420
    L 246 412
    C 284 400 304 378 304 350
    C 304 322 284 300 246 288
    Z
  " fill-rule="evenodd"/>
</svg>
